<svg width="24" height="19" viewBox="0 0 24 19" fill="none" xmlns="http://www.w3.org/2000/svg">
<path opacity="0.5" d="M22 0.15625H7C6.31 0.15625 5.77 0.508437 5.41 1.04175L0 9.21249L5.41 17.3732C5.77 17.9065 6.31 18.2687 7 18.2687H22C23.1 18.2687 24 17.3631 24 16.2562V2.16875C24 1.06187 23.1 0.15625 22 0.15625ZM22 16.2562H7.07L2.4 9.21249L7.06 2.16875H22V16.2562ZM10.41 14.2437L14 10.6313L17.59 14.2437L19 12.8249L15.41 9.21249L19 5.60006L17.59 4.18125L14 7.79368L10.41 4.18125L9 5.60006L12.59 9.21249L9 12.8249L10.41 14.2437Z" fill="white"/>
</svg>
